<?xml version="1.0" encoding="utf-8"?>
<!-- Generator: Adobe Illustrator 22.1.0, SVG Export Plug-In . SVG Version: 6.00 Build 0)  -->
<svg version="1.1" id="Réteg_1" xmlns="http://www.w3.org/2000/svg" xmlns:xlink="http://www.w3.org/1999/xlink" x="0px" y="0px"
	 viewBox="0 0 512 512" style="enable-background:new 0 0 512 512;" xml:space="preserve">
<style type="text/css">
	.st0{fill:#FFFFFF;}
	.st1{fill:#54205B;}
	.st2{fill:#262626;}
</style>
<path class="st0" d="M399.8,484H112.2C65.7,484,28,446.3,28,399.8V112.2C28,65.7,65.7,28,112.2,28h287.5c46.5,0,84.2,37.7,84.2,84.2
	v287.5C484,446.3,446.3,484,399.8,484z"/>
<path d="M255.4,393.9c-59.6,0-119.3,0-178.9,0c-12.9,0-19-6-19-18.9c0-79.3,0-158.6,0-237.9c0-12.9,6.2-19,18.9-19
	c119.6,0,239.3,0,358.9,0c12.8,0,19.1,6.1,19.1,18.9c0,79.3,0,158.6,0,237.9c0,12.9-6.2,19-19,19
	C375.5,393.9,315.5,393.9,255.4,393.9z M112.4,131.9c0,83.1,0,165.5,0,248.1c106.9,0,213.4,0,320.3,0c0-82.8,0-165.3,0-248.1
	C325.8,131.9,219.3,131.9,112.4,131.9z M85,238c-9.2,0-16.9,7.7-16.9,16.8c0,9,7.8,16.9,16.9,17c9.3,0.1,17-7.8,17-17.3
	C101.8,245.2,94.4,237.9,85,238z M443.8,249.1c-0.8,0-1.6,0-2.4,0c-1.5,2-3.8,4-4.1,6.2c-0.5,3.1,2,5.4,5.2,5.4c3.1,0,5.8-2,5.2-5.3
	C447.3,253.2,445.3,251.2,443.8,249.1z"/>
<path class="st1" d="M274.5,170.3c49.8,0.3,90.2,41.5,89.9,91.8c-0.2,34.2-20.1,65.1-49.9,80.2l2.9,5.7
	c31.7-15.8,53.8-47.5,53.5-80.6c-0.1-32.6-9.3-55.3-27.6-74.1c-21.4-22-48-31.2-78.2-29c-12.3,0.9-24.4,4.4-35.5,10l3,6
	C245.1,173.8,259.4,170.2,274.5,170.3z"/>
<path class="st1" d="M273.3,218.9c11.7,0,22,3.5,30.5,12.3c8.3,8.6,12.7,19.3,12.9,30.3c0.3,15.9-10.1,30.2-24.2,37.2l17.5,34.7
	c26.6-13.5,45-41,44.5-72.4c0.4-44.9-37-81.1-81.2-81.2c-12.9,0-25.4,3.3-36.5,9.1l17.5,34.5C260.1,220.6,266.5,218.9,273.3,218.9z"
	/>
<path class="st1" d="M302.7,260.9c-0.1-16.3-12.9-29-29.2-28.9c-4.7,0-9.2,1.2-13.2,3.2l26.3,52
	C296.2,282.4,302.8,272.5,302.7,260.9z"/>
<polygon class="st2" points="209.6,131.9 112.4,131.9 112.4,380.1 335.2,380.1 "/>
</svg>
